<?xml version="1.0"?>
<svg id="Layer_1" data-name="Layer 1" xmlns="http://www.w3.org/2000/svg" viewBox="0 0 819.21 225.63">
  <defs>
    
  </defs>
  <path class="cls-1" d="M155.2,78.33c0,22.54-3.68,48.37-12.1,72.01,6.58,18.41,14.99,46.72,14.99,65.41h-31.57c0-6.32-1.58-15.66-4.21-26.38-14.99,19.51-35.25,32.7-62.34,32.7C19.2,222.07,0,184.68,0,146.48s23.41-77.78,63.4-77.78c24.73,0,43.93,16.76,58.13,38.48,1.32-9.34,2.11-19.24,2.11-28.86h31.57,0ZM59.98,194.58c23.68,0,39.98-21.16,49.72-43.97-11.84-28.58-28.67-54.42-46.3-54.42-14.2,0-24.73,15.12-28.67,28.03-2.37,7.15-3.16,14.84-3.16,22.26,0,17.86,6.58,48.09,28.41,48.09h0Z"></path>
  <path class="cls-1" d="M243.05,175.34h28.94c-.53,31.6-15.78,44.52-41.83,44.52-34.2,0-40.51-22.26-40.51-53.87v-60.19h-22.1v-27.48h14.47l15.52-28.86h23.67v28.86h45.25v27.48h-45.25v64.86c0,14.02,1.84,21.71,11.31,21.71,6.84,0,10.52-6.6,10.52-17.04h.01Z"></path>
  <path class="cls-1" d="M372.2,107.18c-6.31-2.47-15.78-5.5-23.41-5.5-14.73,0-27.88,13.47-27.88,34.63v79.43h-31.57V78.33h31.57v14.57c8.42-11.27,18.68-18.69,33.93-18.69,7.89,0,16.57,1.92,22.62,4.12l-5.26,28.86h0Z"></path>
  <path class="cls-1" d="M410.6,0c13.42,0,22.36,9.34,22.36,23.36s-8.94,23.36-22.36,23.36-22.36-9.34-22.36-23.36S397.19,0,410.6,0ZM394.82,78.33h31.57v137.41h-31.57V78.33h0Z"></path>
  <path class="cls-1" d="M477.15,78.87c-.79,13.47-1.84,27.21-1.84,40.68,0,23.91,2.1,72.55,33.67,72.55,11.31,0,21.57-3.85,29.99-10.44-10.26-22.81-18.68-47-18.68-67.88,0-23.64,11.57-47,36.83-47,30.78,0,39.72,36.55,39.72,62.39,0,20.61-8.68,42.05-21.31,57.71,5,10.17,10,19.51,14.2,27.21l-28.41,11.54c-2.89-5.5-6.05-11.54-9.47-17.86-12.63,7.69-27.36,11.82-42.88,11.82-54.71,0-65.24-53.87-65.24-100.04,0-14.02,1.05-27.76,1.84-41.77l31.57,1.1h0ZM560.54,152.53c2.89-7.42,4.73-15.11,4.73-23.36,0-9.07-2.37-27.48-8.42-34.35-3.95,3.3-5,14.02-5,18.96,0,11.27,3.68,25.01,8.68,38.75h.01Z"></path>
  <path class="cls-1" d="M645.59,91.79c7.89-10.72,19.47-17.59,35.51-17.59,19.2,0,34.46,10.99,43.14,26.38,6.84-15.39,19.73-26.38,43.67-26.38,30.51,0,51.3,17.04,51.3,60.74v80.8h-31.57v-68.71c0-27.21-9.47-45.35-28.15-45.35-16.57,0-27.09,14.29-27.09,36.28v77.78h-31.57v-68.71c0-27.21-9.47-45.35-27.88-45.35-16.31,0-27.36,14.57-27.36,37.1v76.95h-31.57V78.33h31.57v13.47h0Z"></path>
</svg>