<?xml version="1.0" encoding="UTF-8" standalone="no"?>
<!DOCTYPE svg PUBLIC "-//W3C//DTD SVG 1.1//EN" "http://www.w3.org/Graphics/SVG/1.1/DTD/svg11.dtd">
<svg width="100%" height="100%" viewBox="0 0 1788 688" version="1.1" xmlns="http://www.w3.org/2000/svg" xmlns:xlink="http://www.w3.org/1999/xlink" xml:space="preserve" xmlns:serif="http://www.serif.com/" style="fill-rule:evenodd;clip-rule:evenodd;stroke-linejoin:round;stroke-miterlimit:2;">
    <g id="Página-1" serif:id="Página 1" transform="matrix(4.166667,0,0,4.166667,0,0)">
        <rect x="0" y="0" width="429" height="165" style="fill:none;"/>
        <g id="Layer-1" serif:id="Layer 1">
            <g transform="matrix(1,0,0,1,39.526,140.7405)">
                <path d="M0,-53.259C0,-54.929 -0.33,-56.008 -0.99,-56.494C-1.65,-56.982 -2.988,-57.226 -5.003,-57.226C-9.659,-57.226 -13.412,-56.478 -16.261,-54.982C-19.11,-53.484 -21.403,-51.134 -23.14,-47.933L-24.392,-48.141L-22.62,-63.178L35.128,-63.178L36.901,-48.141L35.649,-47.933C33.773,-51.273 31.445,-53.659 28.666,-55.085C25.886,-56.513 22.168,-57.226 17.513,-57.226C15.566,-57.226 14.263,-56.999 13.603,-56.547C12.943,-56.095 12.613,-54.999 12.613,-53.259L12.613,0.207C12.613,1.183 12.665,2.243 12.769,3.392C12.874,4.543 13.151,5.794 13.603,7.153C14.055,8.51 14.629,9.19 15.324,9.19L15.324,9.919L0,9.919L0,-53.259Z" style="fill:rgb(13,14,14);fill-rule:nonzero;"/>
            </g>
            <g transform="matrix(1,0,0,1,130.7328,89.8304)">
                <path d="M0,48.456C3.266,43.477 4.899,36.499 4.899,27.519C4.899,16.935 2.745,8.426 -1.563,1.987C-5.872,-4.455 -11.814,-7.673 -19.388,-7.673C-25.851,-7.673 -30.75,-5.237 -34.086,-0.363C-37.421,4.509 -39.09,11.297 -39.09,20C-39.09,24.594 -38.62,28.962 -37.682,33.104C-36.744,37.248 -35.319,41.058 -33.409,44.539C-31.498,48.021 -28.926,50.787 -25.695,52.84C-22.463,54.895 -18.763,55.922 -14.594,55.922C-8.131,55.922 -3.266,53.433 0,48.456M-43.05,51.067C-49.652,43.651 -52.953,34.654 -52.953,24.071C-52.953,13.559 -49.739,4.631 -43.31,-2.713C-36.883,-10.059 -28.248,-13.73 -17.408,-13.73C-6.428,-13.73 2.346,-10.023 8.912,-2.61C15.479,4.806 18.762,13.872 18.762,24.594C18.762,35.037 15.601,43.912 9.277,51.222C2.953,58.532 -5.663,62.186 -16.574,62.186C-27.623,62.186 -36.448,58.48 -43.05,51.067" style="fill:rgb(13,14,14);fill-rule:nonzero;"/>
            </g>
            <g transform="matrix(1,0,0,1,155.7483,130.9242)">
                <path d="M0,-33.625C-3.266,-45.599 -5.421,-51.935 -6.463,-52.631L-6.463,-53.361L8.235,-53.361C8.651,-50.298 10.076,-44.139 12.509,-34.879L22.932,4.489L23.453,4.489L38.255,-45.635L45.448,-45.635L60.354,4.489L60.875,4.489L73.383,-41.354C75.19,-48.176 75.642,-51.935 74.739,-52.631L74.739,-53.361L85.892,-53.361C84.641,-49.882 83.252,-45.46 81.722,-40.1L64.419,19.736L53.37,19.736L40.235,-24.542L39.818,-24.542L26.789,19.736L14.593,19.736L0,-33.625Z" style="fill:rgb(13,14,14);fill-rule:nonzero;"/>
            </g>
            <g transform="matrix(1,0,0,1,248.0986,142.0976)">
                <path d="M0,-55.973C0,-59.455 -0.555,-62.065 -1.667,-63.805L-1.667,-64.535L7.61,-64.535L50.034,-13.368L50.451,-13.368L50.451,-49.081C50.451,-58.478 49.756,-63.386 48.367,-63.805L48.367,-64.535L58.79,-64.535L58.79,-5.953C58.79,1.288 59.068,6.126 59.624,8.562L52.223,8.562L8.756,-43.547L8.34,-43.547L8.34,-4.282C8.34,3.585 9.034,7.622 10.424,7.832L10.424,8.562L0,8.562L0,-55.973Z" style="fill:rgb(13,14,14);fill-rule:nonzero;"/>
            </g>
            <g transform="matrix(1,0,0,1,404.6038,88.9441)">
                <path d="M0,50.23C-1.967,53.293 -5.531,56.198 -10.692,58.95C-15.854,61.699 -22.326,63.073 -30.109,63.073C-42.235,63.073 -52.313,59.471 -60.341,52.266C-68.371,45.059 -72.385,35.643 -72.385,24.019C-72.385,12.6 -68.391,3.603 -60.403,-2.975C-52.415,-9.555 -41.948,-12.843 -29.004,-12.843C-24.17,-12.843 -19.643,-12.41 -15.424,-11.539C-11.204,-10.668 -8.03,-9.711 -5.9,-8.668L-3.933,7.728L-5.653,7.936C-12.617,-1.81 -23.99,-6.684 -34.968,-6.684C-41.932,-6.684 -47.586,-4.595 -51.928,-0.417C-56.27,3.759 -58.442,10.408 -58.442,19.527C-58.442,30.109 -55.533,38.689 -49.716,45.27C-43.898,51.848 -35.951,55.138 -25.874,55.138C-18.009,55.138 -8.766,52.7 -2.95,47.828L0,50.23Z" style="fill:rgb(13,14,14);fill-rule:nonzero;"/>
            </g>
            <g transform="matrix(0,-1,-1,0,406.5234,106.7163)">
                <path d="M-7.343,-7.343C-11.404,-7.343 -14.698,-4.056 -14.698,-0.001C-14.698,4.054 -11.404,7.343 -7.343,7.343C-3.281,7.343 0.013,4.054 0.013,-0.001C0.013,-4.056 -3.281,-7.343 -7.343,-7.343" style="fill:rgb(13,14,14);fill-rule:nonzero;"/>
            </g>
            <g transform="matrix(1,0,0,1,384.1105,112.2032)">
                <path d="M0,3.708C-0.683,-2.12 -2.094,-6.783 -4.233,-10.286C-6.37,-13.788 -8.86,-15.372 -11.701,-15.038C-13.972,-14.771 -15.548,-13.356 -16.43,-10.797C-17.309,-8.236 -17.491,-4.75 -16.974,-0.34C-16.591,2.927 -15.93,5.994 -14.988,8.865C-14.048,11.735 -12.714,14.145 -10.987,16.094C-9.262,18.046 -7.348,18.896 -5.246,18.649C-0.645,18.108 1.104,13.126 0,3.708M-19.299,18.15C-22.901,14.434 -25.052,9.607 -25.747,3.673C-26.43,-2.153 -25.473,-7.249 -22.874,-11.611C-20.275,-15.976 -16.334,-18.466 -11.052,-19.088C-5.769,-19.709 -1.328,-18.176 2.272,-14.487C5.872,-10.798 8.023,-5.958 8.725,0.032C9.414,5.911 8.487,11.017 5.942,15.346C3.398,19.675 -0.601,22.161 -6.054,22.802C-11.281,23.417 -15.696,21.865 -19.299,18.15" style="fill:rgb(13,14,14);fill-rule:nonzero;"/>
            </g>
            <g transform="matrix(1,0,0,1,176.9672,52.4331)">
                <path d="M0,-29.896C0,-30.876 -0.186,-31.508 -0.56,-31.794C-0.932,-32.081 -1.699,-32.223 -2.861,-32.223C-7.918,-32.223 -11.463,-30.386 -13.495,-26.708L-14.241,-26.832L-13.12,-36.388L22.386,-36.388L23.506,-26.832L22.76,-26.708C20.645,-30.386 17.08,-32.223 12.064,-32.223C10.986,-32.223 10.261,-32.081 9.887,-31.794C9.515,-31.508 9.328,-30.876 9.328,-29.896L9.328,0.795C9.328,1.367 9.359,1.99 9.421,2.663C9.483,3.337 9.648,4.072 9.918,4.869C10.188,5.666 10.53,6.064 10.945,6.064L10.945,6.492L0,6.492L0,-29.896Z" style="fill:rgb(13,14,14);fill-rule:nonzero;"/>
            </g>
            <g transform="matrix(1,0,0,1,204.8317,56.5377)">
                <path d="M0,-41.166C3.151,-41.29 5.991,-42.084 8.519,-43.554L8.519,-24.811C10.965,-27.424 13.868,-28.731 17.225,-28.731C20.293,-28.731 22.574,-27.68 24.066,-25.576C25.559,-23.473 26.615,-20.073 27.237,-15.378L28.792,-3.555C28.915,-2.451 29.155,-1.258 29.507,0.029C29.859,1.316 30.285,1.96 30.782,1.96L30.782,2.388L20.894,2.388L18.78,-14.948C18.365,-18.133 17.764,-20.359 16.976,-21.625C16.189,-22.892 15.07,-23.524 13.619,-23.524C11.629,-23.524 9.929,-22.626 8.519,-20.828L8.519,-3.676C8.519,0.08 8.996,1.96 9.95,1.96L9.95,2.388L0,2.388L0,-41.166Z" style="fill:rgb(13,14,14);fill-rule:nonzero;"/>
            </g>
            <g transform="matrix(1,0,0,1,257.6934,47.7774)">
                <path d="M0,-8.088C-0.332,-10.577 -1.047,-12.611 -2.146,-14.182C-3.244,-15.755 -4.603,-16.54 -6.218,-16.54C-9.37,-16.54 -10.945,-13.641 -10.945,-7.841C-10.945,-7.27 -10.904,-6.494 -10.821,-5.514L0,-8.088ZM8.58,6.124C5.679,9.964 1.575,11.883 -3.731,11.883C-8.79,11.883 -12.707,10.301 -15.485,7.136C-18.263,3.971 -19.65,0.08 -19.65,-4.534C-19.65,-8.944 -18.428,-12.62 -15.982,-15.56C-13.537,-18.501 -10.033,-19.971 -5.472,-19.971C-3.11,-19.971 -1.016,-19.543 0.808,-18.684C2.632,-17.827 4.052,-16.703 5.068,-15.315C6.084,-13.928 6.86,-12.499 7.399,-11.028C7.939,-9.558 8.249,-8.067 8.332,-6.556L-10.324,-2.145C-9.743,0.754 -8.644,3.083 -7.027,4.839C-5.411,6.596 -3.193,7.473 -0.374,7.473C2.155,7.473 4.621,6.451 7.026,4.411L8.58,6.124Z" style="fill:rgb(13,14,14);fill-rule:nonzero;"/>
            </g>
        </g>
    </g>
</svg>
